<svg width="111" height="24" viewBox="0 0 111 24" fill="none" xmlns="http://www.w3.org/2000/svg">
<g id="companyLogo (2) 2">
<path id="Vector" d="M3.08565 22.8866V10.0234H0.571289V6.69278H3.08565V5.74529C3.08565 2.61152 5.37037 0.359619 9.02772 0.359619H10.8886V3.55901H9.19047C7.49235 3.55901 6.70891 4.37525 6.70891 5.87652V6.69278H11.1498V10.0234H6.70891V22.8866H3.08565Z" fill="#6E00BE"/>
<path id="Vector_2" d="M11.5737 14.7896C11.5737 10.0562 15.3282 6.36597 20.1273 6.36597C24.9264 6.36597 28.648 10.0548 28.648 14.7896C28.648 19.5244 24.8935 23.2133 20.1273 23.2133C15.361 23.2133 11.5737 19.5244 11.5737 14.7896ZM25.0248 14.7896C25.0248 11.8842 22.9684 9.76218 20.1273 9.76218C17.2861 9.76218 15.197 11.8842 15.197 14.7896C15.197 17.6951 17.2861 19.8171 20.1273 19.8171C22.9684 19.8171 25.0248 17.6951 25.0248 14.7896Z" fill="#6E00BE"/>
<path id="Vector_3" d="M55.1406 22.8865V6.69273H58.6012V8.35803C59.6458 7.11791 61.3111 6.36597 63.3674 6.36597C67.3502 6.36597 70.1914 9.2071 70.1914 13.6794V22.8865H66.5681V14.0062C66.5681 11.3619 65.1311 9.79503 62.7809 9.79503C60.4305 9.79503 58.7652 11.4275 58.7652 14.0062V22.8865H55.1406Z" fill="#6E00BE"/>
<path id="Vector_4" d="M72.4121 14.7896C72.4121 10.0562 75.9384 6.36602 80.5749 6.36602C82.7619 6.36602 84.6234 7.21507 85.8301 8.68352V0.359619H89.4549V22.8866H85.9944V20.7317C84.8184 22.2986 82.8609 23.2133 80.5749 23.2133C75.9384 23.2133 72.4121 19.5245 72.4121 14.7896ZM85.8631 14.7896C85.8631 11.8842 83.8066 9.76224 80.9656 9.76224C78.1246 9.76224 76.0351 11.8842 76.0351 14.7896C76.0351 17.6951 78.1246 19.7843 80.9656 19.7843C83.8066 19.7843 85.8631 17.6951 85.8631 14.7896Z" fill="#6E00BE"/>
<path id="Vector_5" d="M92.7188 2.08918C92.7188 0.881865 93.6 0 94.8075 0C96.015 0 96.897 0.881865 96.897 2.08918C96.897 3.2965 96.015 4.14556 94.8075 4.14556C93.6 4.14556 92.7188 3.26368 92.7188 2.08918ZM92.9797 22.8865V6.69273H96.6045V22.8865H92.9797Z" fill="#6E00BE"/>
<path id="Vector_6" d="M106.79 22.8865C103.102 22.8865 101.338 21.2868 101.338 17.9234V10.0221H98.6602V6.69141H100.522C101.011 6.69141 101.338 6.36465 101.338 5.77674V2.64429H104.962V6.69273H109.272V10.0233H104.962V17.5651C104.962 18.8381 105.583 19.4916 107.051 19.4916H109.272V22.8865H106.79Z" fill="#6E00BE"/>
<path id="Vector_7" d="M30.0051 8.52078C29.9973 8.63756 29.9802 8.90921 29.9644 9.29246C29.9487 9.67563 29.9355 10.1743 29.9355 10.7544C29.9355 11.7622 29.9763 13.0167 30.1219 14.3487C30.2308 15.3487 30.3988 16.392 30.656 17.4103C30.849 18.1741 31.0904 18.9247 31.3988 19.6334C31.8607 20.695 32.4696 21.6661 33.2964 22.4246C33.7084 22.8026 34.1756 23.1254 34.6979 23.3694C35.2202 23.6148 35.795 23.7802 36.417 23.8524L36.4617 23.8563C36.6768 23.8681 36.8907 23.8734 37.1034 23.8734C38.6781 23.8734 40.1479 23.5558 41.4956 23.002C42.6753 22.5191 43.7646 21.8577 44.7645 21.0769C46.5152 19.7094 47.9967 17.9785 49.2461 16.1558C51.1174 13.4209 52.4651 10.4775 53.3523 8.20975C54.238 5.94213 54.6606 4.35293 54.6658 4.33325C54.7696 3.9435 54.5373 3.54194 54.1462 3.43826C53.7564 3.33459 53.3549 3.56687 53.2512 3.95793C53.2459 3.97762 52.9284 5.16263 52.2762 6.92242C51.2985 9.56148 49.5584 13.4958 47.0204 16.7187C45.7527 18.3303 44.2882 19.7619 42.6387 20.7803C41.8132 21.2895 40.9431 21.6976 40.0219 21.9771C39.102 22.2579 38.1309 22.4115 37.102 22.4115C36.917 22.4115 36.7293 22.4062 36.5391 22.3957L36.4997 23.1254L36.5837 22.3997C36.0246 22.3341 35.5417 22.1753 35.1087 21.9404C34.7294 21.7344 34.3882 21.468 34.0758 21.1464C33.53 20.5835 33.0772 19.8459 32.715 18.9995C32.1704 17.7292 31.8345 16.2214 31.6416 14.7555C31.4487 13.2897 31.3948 11.8659 31.3948 10.7544C31.3948 10.1979 31.4079 9.71891 31.4224 9.35283C31.4368 8.98533 31.4539 8.73206 31.4618 8.61663C31.488 8.21373 31.1823 7.86596 30.7794 7.83971C30.3765 7.81346 30.0288 8.11923 30.0025 8.52213L30.0051 8.52078Z" fill="#E119A0"/>
<path id="Vector_8" d="M29.9735 8.46055C29.9696 8.48545 29.8213 9.5458 29.8213 11.0352C29.8213 11.8974 29.8712 12.9039 30.0326 13.942C30.1533 14.7202 30.3371 15.5154 30.6152 16.2819C30.8239 16.8566 31.085 17.4144 31.4171 17.9327C31.9131 18.7096 32.5732 19.4012 33.4275 19.8906C34.2805 20.3814 35.3185 20.6583 36.5206 20.6571C37.7253 20.6571 38.8657 20.4077 39.9221 19.9799C41.775 19.2279 43.3748 17.9406 44.7448 16.4577C46.7985 14.2307 48.3483 11.547 49.3982 9.41328C50.4467 7.27945 50.9913 5.69551 50.9992 5.67451C51.137 5.27294 50.9231 4.83463 50.5215 4.69684C50.12 4.55905 49.6817 4.77295 49.5438 5.17452C49.5399 5.18633 49.2302 6.08395 48.6344 7.41855C47.7434 9.4198 46.2014 12.4053 44.1215 14.8422C43.0834 16.0614 41.9115 17.1401 40.6399 17.9025C40.0034 18.2844 39.3434 18.5875 38.657 18.7962C37.972 19.0049 37.262 19.1177 36.5206 19.1177C35.9458 19.1177 35.4471 19.0416 35.0114 18.9078C34.6295 18.7909 34.295 18.6309 33.9944 18.4327C33.4695 18.0876 33.043 17.6256 32.6926 17.0692C32.1677 16.2372 31.8252 15.1926 31.6257 14.1204C31.4236 13.0497 31.3619 11.9565 31.3619 11.0352C31.3619 10.3424 31.3973 9.74523 31.4315 9.3253C31.4486 9.11538 31.4656 8.95 31.4787 8.83848C31.4853 8.782 31.4906 8.74 31.4945 8.71248C31.4958 8.69808 31.4971 8.68885 31.4984 8.68233V8.67573L31.2399 8.64033L31.4984 8.67708C31.5575 8.2558 31.2648 7.86738 30.8436 7.807C30.4223 7.74663 30.0339 8.04055 29.9735 8.46183V8.46055Z" fill="#00AEFF"/>
<path id="Vector_9" d="M29.9656 8.56278V8.58115C29.9656 8.6953 29.9709 9.27408 30.068 10.0864C30.1415 10.6966 30.2662 11.4381 30.4853 12.2202C30.6494 12.8055 30.8659 13.413 31.1572 14.0036C31.3751 14.4459 31.6363 14.8789 31.9486 15.2817C32.4184 15.8854 33.0102 16.4248 33.7464 16.8093C34.4813 17.1938 35.3539 17.4169 36.3434 17.4156C37.1912 17.4156 37.9957 17.2476 38.7397 16.9602C40.0441 16.4563 41.1675 15.598 42.1267 14.6178C43.565 13.144 44.6477 11.3829 45.3839 9.98403C46.1201 8.58513 46.5046 7.54705 46.5124 7.52478C46.6607 7.12582 46.4573 6.68358 46.0584 6.53529C45.6595 6.387 45.2172 6.5904 45.0689 6.98934C45.0624 7.00903 44.8432 7.59303 44.4298 8.45253C43.8118 9.74253 42.7514 11.652 41.3499 13.1952C40.6504 13.9668 39.867 14.6453 39.0284 15.1203C38.1872 15.5967 37.3001 15.8736 36.3421 15.8736C35.7385 15.8736 35.2319 15.7699 34.7936 15.5967C34.4104 15.4445 34.0758 15.2372 33.7766 14.9826C33.2543 14.539 32.837 13.9446 32.5155 13.2819C32.0326 12.2884 31.7701 11.1507 31.6402 10.2426C31.5089 9.33445 31.5037 8.65855 31.5037 8.58115V8.57328C31.5063 8.1481 31.1651 7.80168 30.7399 7.7977C30.3148 7.7938 29.9683 8.13625 29.9644 8.5615L29.9656 8.56278Z" fill="#FFA000"/>
</g>
</svg>
